<?xml version="1.0" encoding="utf-8"?>
<!-- Generator: Adobe Illustrator 23.0.6, SVG Export Plug-In . SVG Version: 6.00 Build 0)  -->
<svg version="1.1" id="Layer_1" xmlns="http://www.w3.org/2000/svg" xmlns:xlink="http://www.w3.org/1999/xlink" x="0px" y="0px"
	 viewBox="0 0 226.6 233.8" style="enable-background:new 0 0 226.6 233.8;" xml:space="preserve">
<style type="text/css">
	.st0{fill:none;stroke:#000000;stroke-width:2;stroke-miterlimit:10;}
	.st1{fill:none;stroke:#000000;stroke-width:0.5;stroke-miterlimit:10;}
	.st2{fill:#FFFFFF;}
</style>
<path d="M125.3,33.3c-0.1-0.6-0.3-1.3-0.6-1.9c-0.2-0.6-0.6-1.1-1-1.6s-1-0.9-1.7-1.1c-0.6-0.2-1.4-0.4-2.4-0.4
	c-0.9,0-1.7,0.1-2.4,0.4c-0.6,0.3-1.2,0.6-1.7,1.1c-0.4,0.5-0.8,0.9-1,1.6c-0.2,0.6-0.4,1.2-0.6,1.9c-0.2,0.6-0.2,1.3-0.2,2.1
	s0,1.4-0.1,2.1c0,0.6,0.1,1.3,0.1,2.1s0.1,1.3,0.2,2.1c0.1,0.6,0.3,1.3,0.6,1.9c0.2,0.6,0.6,1.1,1,1.6c0.5,0.5,1,0.9,1.7,1.1
	c0.6,0.2,1.4,0.4,2.4,0.4s1.7-0.1,2.4-0.4c0.7-0.3,1.2-0.6,1.7-1.1c0.4-0.5,0.8-1,1-1.6c0.2-0.6,0.4-1.2,0.6-1.9
	c0.2-0.6,0.2-1.3,0.2-2.1s0.1-1.4,0.1-2.1c0-0.6-0.1-1.3-0.1-2.1C125.6,34.7,125.5,34.1,125.3,33.3z M123.5,37.4
	c0,0.7,0,1.4-0.1,2.3c0,0.9-0.2,1.7-0.4,2.4c-0.2,0.8-0.6,1.3-1.1,1.9c-0.6,0.6-1.2,0.8-2.1,0.8s-1.7-0.2-2.1-0.8s-0.9-1.2-1.1-1.9
	c-0.2-0.8-0.3-1.5-0.4-2.4c0-0.8,0-1.6-0.1-2.3V36c0.1-0.6,0.1-1,0.2-1.6c0.1-0.6,0.2-1.1,0.3-1.6c0.2-0.6,0.3-0.9,0.6-1.3
	c0.2-0.4,0.6-0.7,1-0.9c0.5-0.2,0.9-0.3,1.6-0.3c0.6,0,1.2,0.1,1.6,0.3c0.4,0.2,0.7,0.6,1,0.9c0.3,0.4,0.5,0.9,0.6,1.3
	c0.2,0.6,0.2,1,0.3,1.6c0.1,0.6,0.2,1,0.2,1.6V37.4z"/>
<path d="M171.5,94.7h2.1v-18H172c-0.1,0.6-0.3,1.2-0.6,1.7c-0.3,0.4-0.7,0.8-1.2,1c-0.5,0.3-1,0.5-1.6,0.6c-0.6,0.1-1.1,0.2-1.7,0.2
	v1.7h4.7L171.5,94.7L171.5,94.7z"/>
<path d="M172,145.9c-0.4,0.4-0.9,0.8-1.4,1.2c-0.6,0.4-1.2,0.8-2,1.3c-0.6,0.4-1.3,0.8-1.8,1.2c-0.6,0.5-1.1,0.9-1.6,1.5
	c-0.5,0.6-0.8,1.3-1.1,2c-0.3,0.7-0.5,1.7-0.6,2.7h11.8v-1.9h-9.2c0.1-0.6,0.3-1.1,0.6-1.5s0.7-0.8,1.2-1.2c0.5-0.3,0.9-0.6,1.5-1
	c0.6-0.4,1.1-0.7,1.7-1c0.6-0.3,1-0.7,1.6-1.1c0.6-0.3,1-0.8,1.4-1.3c0.4-0.5,0.7-1,0.9-1.7c0.2-0.6,0.4-1.3,0.4-2.1
	c0-0.9-0.2-1.6-0.5-2.2s-0.7-1.2-1.2-1.6c-0.6-0.4-1.1-0.7-1.8-0.9c-0.7-0.2-1.4-0.3-2.2-0.3c-0.9,0-1.8,0.2-2.5,0.5
	c-0.8,0.3-1.4,0.8-1.9,1.3c-0.5,0.6-0.9,1.2-1.1,2c-0.2,0.8-0.3,1.6-0.2,2.5h2.1c0-0.6,0-1,0.2-1.6c0.2-0.6,0.3-1,0.6-1.4
	c0.3-0.4,0.6-0.8,1.1-1c0.4-0.2,0.9-0.4,1.6-0.4c0.5,0,0.9,0.1,1.3,0.2c0.4,0.2,0.8,0.3,1.1,0.6c0.3,0.3,0.6,0.6,0.7,1
	c0.2,0.4,0.3,0.9,0.3,1.3c0,0.6-0.1,1.2-0.3,1.7C172.6,145,172.4,145.5,172,145.9z"/>
<path d="M48.6,142.7h-1.7l-8.1,11.7v2.1h7.9v4.2h2.1v-4.2h2.5v-1.9h-2.5V142.7z M46.7,154.6h-6l6-8.8V154.6z"/>
<path d="M156.1,49.1c-0.5-0.6-1.1-0.9-1.8-1.2c-0.6-0.2-1.4-0.4-2.2-0.4c-0.6,0-1.2,0.1-1.8,0.3c-0.6,0.2-1.1,0.5-1.5,0.9l-0.1-0.1
	l0.9-5.1v0.1h7.1v-1.9h-8.9l-1.7,9.3l1.8,0.1c0.4-0.6,0.9-0.9,1.4-1.3c0.6-0.3,1.2-0.5,1.9-0.5c0.6,0,1.2,0.1,1.7,0.3
	c0.5,0.2,0.9,0.6,1.3,0.9c0.3,0.3,0.6,0.7,0.8,1.3c0.2,0.6,0.3,1.1,0.3,1.7c0,0.7-0.1,1.3-0.3,1.9c-0.2,0.6-0.5,1-0.8,1.3
	c-0.3,0.3-0.7,0.6-1.2,0.8c-0.4,0.2-0.9,0.2-1.4,0.2c-0.6,0-1-0.1-1.5-0.2s-0.9-0.4-1.2-0.7c-0.3-0.3-0.6-0.6-0.8-1
	c-0.2-0.4-0.3-0.8-0.3-1.3h-2.1c0,0.9,0.2,1.6,0.5,2.2c0.3,0.6,0.7,1.2,1.3,1.6c0.6,0.4,1.1,0.7,1.8,0.9c0.7,0.2,1.4,0.3,2.2,0.3
	c1.1,0,2-0.2,2.8-0.5c0.8-0.3,1.4-0.8,2-1.3s0.9-1.2,1.2-1.9c0.2-0.7,0.4-1.4,0.4-2.2c0-1-0.2-2-0.5-2.7
	C157,50.2,156.6,49.6,156.1,49.1z"/>
<path d="M112,199.6c-0.6-0.8-1.3-1.3-2.5-1.6V198c0.7-0.3,1.3-0.8,1.7-1.4c0.5-0.6,0.7-1.3,0.7-2.1c0-0.8-0.1-1.5-0.4-2.1
	c-0.3-0.6-0.7-1.1-1.2-1.5c-0.5-0.4-1.1-0.6-1.7-0.9c-0.6-0.2-1.3-0.3-2.1-0.3c-0.9,0-1.7,0.1-2.4,0.4s-1.3,0.7-1.7,1.2
	c-0.4,0.5-0.8,1.1-1,1.8c-0.2,0.7-0.4,1.5-0.4,2.4h2.1c0-0.6,0.1-1,0.2-1.5c0.2-0.5,0.3-0.9,0.6-1.3c0.2-0.4,0.6-0.6,1-0.9
	c0.4-0.2,0.9-0.3,1.5-0.3c0.9,0,1.7,0.2,2.3,0.7c0.6,0.5,0.9,1.2,0.9,2.1c0,0.5-0.2,0.9-0.3,1.3s-0.4,0.7-0.7,0.9
	c-0.3,0.2-0.7,0.5-1.1,0.6c-0.4,0.1-0.8,0.2-1.3,0.2h-0.7h-0.1v2.1c0.4-0.1,0.8-0.1,1.3-0.1c0.6,0,1,0.2,1.5,0.2
	c0.5,0.1,0.9,0.3,1.2,0.6s0.6,0.6,0.8,1.1c0.2,0.5,0.3,0.9,0.3,1.5c0,0.5-0.1,0.9-0.3,1.4c-0.2,0.5-0.5,0.8-0.9,1.1
	s-0.8,0.6-1.3,0.7c-0.5,0.2-0.9,0.2-1.5,0.2c-1.3,0-2.2-0.4-2.8-1.1c-0.6-0.7-1-1.7-1-2.8h-2.1c0,0.9,0.1,1.7,0.4,2.5
	c0.2,0.7,0.6,1.3,1.2,1.8c0.6,0.5,1.2,0.9,1.9,1.1c0.7,0.2,1.5,0.4,2.5,0.4c0.8,0,1.6-0.1,2.4-0.3c0.8-0.2,1.4-0.6,2-1
	c0.6-0.5,1-1,1.3-1.7c0.3-0.7,0.5-1.5,0.5-2.4C112.8,201.4,112.5,200.4,112,199.6z"/>
<line class="st0" x1="113.4" y1="0.4" x2="113.4" y2="27.2"/>
<line class="st0" x1="189.1" y1="159.9" x2="212.4" y2="173.2"/>
<line class="st0" x1="113.3" y1="208.2" x2="113.3" y2="235"/>
<line class="st0" x1="-0.3" y1="116.3" x2="26.5" y2="116.3"/>
<line class="st0" x1="200" y1="116.3" x2="226.8" y2="116.3"/>
<line class="st0" x1="170.9" y1="16.8" x2="157.5" y2="40"/>
<line class="st0" x1="188.3" y1="73" x2="211.5" y2="59.6"/>
<line class="st0" x1="158.3" y1="193.7" x2="171.9" y2="216.8"/>
<line class="st0" x1="68.7" y1="193.7" x2="55.4" y2="216.9"/>
<line class="st0" x1="37.5" y1="160.1" x2="14.3" y2="173.5"/>
<line class="st0" x1="15" y1="59.3" x2="38.2" y2="72.7"/>
<line class="st0" x1="55.6" y1="16.8" x2="69" y2="40"/>
<line class="st1" x1="125.6" y1="1.2" x2="124.8" y2="9"/>
<line class="st1" x1="137.2" y1="3.2" x2="135.5" y2="10.9"/>
<line class="st1" x1="148.7" y1="6.4" x2="146.3" y2="13.9"/>
<line class="st1" x1="160.7" y1="11.3" x2="157.5" y2="18.5"/>
<line class="st1" x1="180.7" y1="23.8" x2="176.1" y2="30.1"/>
<line class="st1" x1="189.3" y1="31" x2="184" y2="36.9"/>
<line class="st1" x1="198.1" y1="40" x2="192.2" y2="45.3"/>
<line class="st1" x1="205.4" y1="49.6" x2="199.1" y2="54.3"/>
<line class="st1" x1="205.4" y1="49.6" x2="199.1" y2="54.3"/>
<line class="st1" x1="216.7" y1="69.9" x2="209.5" y2="73.1"/>
<line class="st1" x1="220.7" y1="81.2" x2="213.2" y2="83.6"/>
<line class="st1" x1="223.6" y1="92.7" x2="215.9" y2="94.3"/>
<line class="st1" x1="225.4" y1="104.2" x2="217.6" y2="105"/>
<line class="st1" x1="225.8" y1="127.5" x2="218" y2="126.7"/>
<line class="st1" x1="224.2" y1="139.2" x2="216.5" y2="137.5"/>
<line class="st1" x1="221.3" y1="150.5" x2="213.8" y2="148.1"/>
<line class="st1" x1="217.5" y1="162.1" x2="210.3" y2="158.9"/>
<line class="st1" x1="206.4" y1="183.4" x2="200" y2="178.7"/>
<line class="st1" x1="198.9" y1="193.1" x2="193.1" y2="187.8"/>
<line class="st1" x1="190.6" y1="201.9" x2="185.4" y2="196.1"/>
<line class="st1" x1="181.1" y1="210" x2="176.5" y2="203.6"/>
<line class="st1" x1="160.9" y1="222.6" x2="157.7" y2="215.4"/>
<line class="st1" x1="149" y1="227.4" x2="146.6" y2="220"/>
<line class="st1" x1="137.6" y1="230.6" x2="136" y2="223"/>
<line class="st1" x1="126" y1="232.7" x2="125.2" y2="224.9"/>
<line class="st1" x1="101.3" y1="232.5" x2="102.1" y2="224.7"/>
<line class="st1" x1="88.9" y1="230.5" x2="90.5" y2="222.8"/>
<line class="st1" x1="77.1" y1="227" x2="79.5" y2="219.6"/>
<line class="st1" x1="66.5" y1="222.8" x2="69.7" y2="215.6"/>
<line class="st1" x1="45.4" y1="209.9" x2="50" y2="203.6"/>
<line class="st1" x1="35.8" y1="201.7" x2="41" y2="195.9"/>
<line class="st1" x1="27.8" y1="193.3" x2="33.6" y2="188"/>
<line class="st1" x1="20.9" y1="184" x2="27.3" y2="179.3"/>
<line class="st1" x1="9.2" y1="162.3" x2="16.3" y2="159.1"/>
<line class="st1" x1="5.2" y1="151.3" x2="12.7" y2="148.8"/>
<line class="st1" x1="2.4" y1="139.6" x2="10.1" y2="138"/>
<line class="st1" x1="0.7" y1="127.7" x2="8.6" y2="126.8"/>
<line class="st1" x1="1" y1="104.8" x2="8.8" y2="105.6"/>
<line class="st1" x1="2.8" y1="92.2" x2="10.5" y2="93.8"/>
<line class="st1" x1="5.9" y1="80.6" x2="13.4" y2="83"/>
<line class="st1" x1="9.9" y1="69.7" x2="17.1" y2="72.9"/>
<line class="st1" x1="21.5" y1="49" x2="27.9" y2="53.6"/>
<line class="st1" x1="28.6" y1="39.8" x2="34.4" y2="45.1"/>
<line class="st1" x1="36.8" y1="31.1" x2="42.1" y2="36.9"/>
<line class="st1" x1="45.9" y1="23.5" x2="50.5" y2="29.8"/>
<line class="st1" x1="66.4" y1="10.9" x2="69.6" y2="18.1"/>
<line class="st1" x1="77.4" y1="6.5" x2="79.9" y2="14"/>
<line class="st1" x1="89.2" y1="3.2" x2="90.9" y2="10.9"/>
<line class="st1" x1="101.7" y1="1.1" x2="102.5" y2="9"/>
<path d="M109.5,31c-0.6-0.5-1.2-0.7-2.1-0.7c-0.9,0-1.7,0.2-2.2,0.6c-0.6,0.4-1,1-1.3,1.7c-0.2,0.6-0.6,1.4-0.6,2.2
	c-0.1,0.8-0.2,1.5-0.2,2.2l0.1,0.1c0.5-0.8,1.1-1.4,1.9-1.8c0.7-0.4,1.6-0.6,2.6-0.6c0.9,0,1.7,0.2,2.3,0.5c0.7,0.3,1.3,0.7,1.7,1.3
	c0.5,0.6,0.8,1.1,1.1,1.8c0.2,0.7,0.4,1.5,0.4,2.3c0,0.6-0.1,1.3-0.3,2.1c-0.2,0.7-0.6,1.3-1,1.9c-0.5,0.6-1.1,1-1.8,1.4
	c-0.8,0.4-1.7,0.6-2.8,0.6c-1.3,0-2.4-0.2-3.2-0.8s-1.4-1.3-1.9-2.1c-0.5-0.9-0.7-1.7-0.9-2.8c-0.2-1-0.2-2-0.2-2.9
	c0-1.3,0.1-2.5,0.3-3.6c0.2-1.2,0.6-2.2,1.1-3.1c0.5-0.9,1.2-1.6,2.1-2.1c0.9-0.6,1.9-0.8,3.2-0.8c1.5,0,2.7,0.4,3.6,1.2
	c0.9,0.8,1.3,1.9,1.5,3.4h-2.1C110.4,32.1,110.1,31.5,109.5,31L109.5,31z"/>
<path class="st2" d="M105.6,36.9c-0.5,0.2-0.9,0.5-1.2,0.9c-0.3,0.4-0.6,0.8-0.7,1.3c-0.2,0.5-0.2,1-0.2,1.6c0,0.6,0.1,1.1,0.2,1.6
	s0.4,0.9,0.7,1.3c0.3,0.3,0.7,0.6,1.2,0.9c0.5,0.2,1,0.3,1.6,0.3s1.1-0.1,1.6-0.3c0.5-0.2,0.8-0.5,1.1-0.9s0.6-0.8,0.7-1.3
	c0.2-0.5,0.2-0.9,0.2-1.5s-0.1-1.1-0.2-1.6c-0.2-0.5-0.4-0.9-0.6-1.3c-0.3-0.4-0.7-0.6-1.1-0.9c-0.4-0.2-0.9-0.3-1.6-0.3
	C106.6,36.6,106.1,36.8,105.6,36.9L105.6,36.9z"/>
<path d="M187.3,75.9c-0.1-0.6-0.3-1.3-0.6-1.9c-0.2-0.6-0.6-1.1-1-1.6c-0.5-0.5-1-0.9-1.7-1.1s-1.4-0.4-2.4-0.4
	c-0.9,0-1.7,0.1-2.4,0.4s-1.2,0.6-1.7,1.1c-0.4,0.5-0.8,0.9-1,1.6c-0.2,0.6-0.4,1.2-0.6,1.9c-0.2,0.6-0.2,1.3-0.2,2.1
	c0,0.7,0,1.4-0.1,2.1c0,0.6,0.1,1.3,0.1,2.1c0,0.7,0.1,1.3,0.2,2.1c0.1,0.6,0.3,1.3,0.6,1.9c0.2,0.6,0.6,1.1,1,1.6
	c0.5,0.5,1,0.9,1.7,1.1s1.4,0.4,2.4,0.4c0.9,0,1.7-0.1,2.4-0.4c0.7-0.3,1.2-0.6,1.7-1.1c0.4-0.5,0.8-1,1-1.6s0.4-1.2,0.6-1.9
	c0.2-0.6,0.2-1.3,0.2-2.1c0.1-0.7,0.1-1.4,0.1-2.1c0-0.6-0.1-1.3-0.1-2.1C187.5,77.3,187.4,76.6,187.3,75.9z M185.5,80
	c0,0.7,0,1.4-0.1,2.3c0,0.9-0.2,1.7-0.4,2.4c-0.2,0.8-0.6,1.3-1.1,1.9c-0.6,0.6-1.2,0.8-2.1,0.8s-1.7-0.2-2.1-0.8s-0.9-1.2-1.1-1.9
	c-0.2-0.8-0.3-1.5-0.4-2.4c0-0.8,0-1.6-0.1-2.3v-1.4c0.1-0.6,0.1-1,0.2-1.6c0.1-0.6,0.2-1.1,0.3-1.6c0.2-0.6,0.3-0.9,0.6-1.3
	c0.2-0.4,0.6-0.7,1-0.9c0.5-0.2,0.9-0.3,1.6-0.3s1.2,0.1,1.6,0.3c0.4,0.2,0.7,0.6,1,0.9c0.3,0.4,0.5,0.9,0.6,1.3
	c0.2,0.6,0.2,1,0.3,1.6c0.1,0.6,0.2,1,0.2,1.6V80z"/>
<path d="M181.5,125h2.1v-18H182c-0.1,0.6-0.3,1.2-0.6,1.7c-0.3,0.4-0.7,0.8-1.2,1c-0.5,0.3-1,0.5-1.6,0.6c-0.6,0.1-1.1,0.2-1.7,0.2
	v1.7h4.7V125L181.5,125z"/>
<path d="M196,115c-0.5-0.6-1.1-0.9-1.8-1.2c-0.6-0.2-1.4-0.4-2.2-0.4c-0.6,0-1.2,0.1-1.8,0.3c-0.6,0.2-1.1,0.5-1.5,0.9l-0.1-0.1
	l0.9-5.1v0.1h7.1v-1.9h-8.9l-1.7,9.3l1.8,0.1c0.4-0.6,0.9-0.9,1.4-1.3c0.6-0.3,1.2-0.5,1.9-0.5c0.6,0,1.2,0.1,1.7,0.3
	c0.5,0.2,0.9,0.6,1.3,0.9c0.3,0.3,0.6,0.7,0.8,1.3c0.2,0.6,0.3,1.1,0.3,1.7c0,0.7-0.1,1.3-0.3,1.9c-0.2,0.6-0.5,1-0.8,1.3
	s-0.7,0.6-1.2,0.8c-0.4,0.2-0.9,0.2-1.4,0.2c-0.6,0-1-0.1-1.5-0.2c-0.5-0.2-0.9-0.4-1.2-0.7c-0.3-0.3-0.6-0.6-0.8-1
	c-0.2-0.4-0.3-0.8-0.3-1.3h-2.1c0,0.9,0.2,1.6,0.5,2.2c0.3,0.6,0.7,1.2,1.3,1.6c0.6,0.4,1.1,0.7,1.8,0.9c0.7,0.2,1.4,0.3,2.2,0.3
	c1.1,0,2-0.2,2.8-0.5c0.8-0.3,1.4-0.8,2-1.3s0.9-1.2,1.2-1.9c0.2-0.7,0.4-1.4,0.4-2.2c0-1-0.2-2-0.5-2.7
	C197,116.1,196.6,115.5,196,115z"/>
<path d="M187.7,149.1c-0.1-0.6-0.3-1.3-0.6-1.9c-0.2-0.6-0.6-1.1-1-1.6c-0.5-0.5-1-0.9-1.7-1.1c-0.6-0.2-1.4-0.4-2.4-0.4
	c-0.9,0-1.7,0.1-2.4,0.4s-1.2,0.6-1.7,1.1c-0.4,0.5-0.8,0.9-1,1.6c-0.2,0.6-0.4,1.2-0.6,1.9c-0.2,0.6-0.2,1.3-0.2,2.1
	c0,0.7,0,1.4-0.1,2.1c0,0.6,0.1,1.3,0.1,2.1s0.1,1.3,0.2,2.1c0.1,0.6,0.3,1.3,0.6,1.9s0.6,1.1,1,1.6c0.5,0.5,1,0.9,1.7,1.1
	c0.6,0.2,1.4,0.4,2.4,0.4s1.7-0.1,2.4-0.4c0.7-0.3,1.2-0.6,1.7-1.1c0.4-0.5,0.8-1,1-1.6c0.2-0.6,0.4-1.2,0.6-1.9
	c0.2-0.6,0.2-1.3,0.2-2.1c0.1-0.7,0.1-1.4,0.1-2.1s-0.1-1.3-0.1-2.1C187.9,150.4,187.8,149.8,187.7,149.1z M185.8,153.1
	c0,0.7,0,1.4-0.1,2.3c0,0.9-0.2,1.7-0.4,2.4c-0.2,0.8-0.6,1.3-1.1,1.9c-0.6,0.6-1.2,0.8-2.1,0.8s-1.7-0.2-2.1-0.8
	c-0.5-0.6-0.9-1.2-1.1-1.9c-0.2-0.8-0.3-1.5-0.4-2.4c0-0.8,0-1.6-0.1-2.3v-1.4c0.1-0.6,0.1-1,0.2-1.6c0.1-0.6,0.2-1.1,0.3-1.6
	c0.2-0.6,0.3-0.9,0.6-1.3c0.2-0.4,0.6-0.7,1-0.9c0.5-0.2,0.9-0.3,1.6-0.3c0.6,0,1.2,0.1,1.6,0.3c0.4,0.2,0.7,0.6,1,0.9
	c0.3,0.4,0.5,0.9,0.6,1.3c0.2,0.6,0.2,1,0.3,1.6s0.2,1,0.2,1.6V153.1z"/>
<path d="M147.2,175.1c-0.4,0.4-0.9,0.8-1.4,1.2c-0.6,0.4-1.2,0.8-2,1.3c-0.6,0.4-1.3,0.8-1.8,1.2c-0.6,0.5-1.1,0.9-1.6,1.5
	s-0.8,1.3-1.1,2c-0.3,0.7-0.5,1.7-0.6,2.7h11.8V183h-9.2c0.1-0.6,0.3-1.1,0.6-1.5c0.3-0.4,0.7-0.8,1.2-1.2c0.5-0.3,0.9-0.6,1.5-1
	c0.6-0.4,1.1-0.7,1.7-1c0.6-0.3,1-0.7,1.6-1.1c0.6-0.3,1-0.8,1.4-1.3c0.4-0.5,0.7-1,0.9-1.7c0.2-0.6,0.4-1.3,0.4-2.1
	c0-0.9-0.2-1.6-0.5-2.2c-0.3-0.6-0.7-1.2-1.2-1.6c-0.6-0.4-1.1-0.7-1.8-0.9c-0.7-0.2-1.4-0.3-2.2-0.3c-0.9,0-1.8,0.2-2.5,0.5
	c-0.8,0.3-1.4,0.8-1.9,1.3c-0.5,0.6-0.9,1.2-1.1,2c-0.2,0.8-0.3,1.6-0.2,2.5h2.1c0-0.6,0-1,0.2-1.6s0.3-1,0.6-1.4
	c0.3-0.4,0.6-0.8,1.1-1c0.4-0.2,0.9-0.4,1.6-0.4c0.5,0,0.9,0.1,1.3,0.2c0.4,0.2,0.8,0.3,1.1,0.6c0.3,0.3,0.6,0.6,0.7,1
	c0.2,0.4,0.3,0.9,0.3,1.3c0,0.6-0.1,1.2-0.3,1.7C147.8,174.2,147.6,174.7,147.2,175.1z"/>
<path d="M161.4,181.2c-0.5-0.6-1.1-0.9-1.8-1.2c-0.6-0.2-1.4-0.4-2.2-0.4c-0.6,0-1.2,0.1-1.8,0.3c-0.6,0.2-1.1,0.5-1.5,0.9l-0.1-0.1
	l0.9-5.1v0.1h7.1v-1.9h-8.9l-1.7,9.3l1.8,0.1c0.4-0.6,0.9-0.9,1.4-1.3s1.2-0.5,1.9-0.5c0.6,0,1.2,0.1,1.7,0.3
	c0.5,0.2,0.9,0.6,1.3,0.9c0.3,0.3,0.6,0.7,0.8,1.3s0.3,1.1,0.3,1.7c0,0.7-0.1,1.3-0.3,1.9c-0.2,0.6-0.5,1-0.8,1.3
	c-0.3,0.3-0.7,0.6-1.2,0.8c-0.4,0.2-0.9,0.2-1.4,0.2c-0.6,0-1-0.1-1.5-0.2c-0.5-0.2-0.9-0.4-1.2-0.7s-0.6-0.6-0.8-1
	c-0.2-0.4-0.3-0.8-0.3-1.3h-2.1c0,0.9,0.2,1.6,0.5,2.2s0.7,1.2,1.3,1.6c0.6,0.4,1.1,0.7,1.8,0.9c0.7,0.2,1.4,0.3,2.2,0.3
	c1.1,0,2-0.2,2.8-0.5c0.8-0.3,1.4-0.8,2-1.3s0.9-1.2,1.2-1.9c0.2-0.7,0.4-1.4,0.4-2.2c0-1-0.2-2-0.5-2.7
	C162.4,182.4,162,181.8,161.4,181.2z"/>
<path d="M125.8,194.7c-0.1-0.6-0.3-1.3-0.6-1.9c-0.2-0.6-0.6-1.1-1-1.6c-0.5-0.5-1-0.9-1.7-1.1c-0.6-0.2-1.4-0.4-2.4-0.4
	c-0.9,0-1.7,0.1-2.4,0.4c-0.6,0.3-1.2,0.6-1.7,1.1c-0.4,0.5-0.8,0.9-1,1.6c-0.2,0.6-0.4,1.2-0.6,1.9c-0.2,0.6-0.2,1.3-0.2,2.1
	c0,0.7,0,1.4-0.1,2.1c0,0.6,0.1,1.3,0.1,2.1s0.1,1.3,0.2,2.1c0.1,0.6,0.3,1.3,0.6,1.9c0.2,0.6,0.6,1.1,1,1.6c0.5,0.5,1,0.9,1.7,1.1
	c0.6,0.2,1.4,0.4,2.4,0.4s1.7-0.1,2.4-0.4c0.7-0.3,1.2-0.6,1.7-1.1c0.4-0.5,0.8-1,1-1.6c0.2-0.6,0.4-1.2,0.6-1.9
	c0.2-0.6,0.2-1.3,0.2-2.1s0.1-1.4,0.1-2.1s-0.1-1.3-0.1-2.1C126,196,126,195.4,125.8,194.7z M124,198.7c0,0.7,0,1.4-0.1,2.3
	c0,0.9-0.2,1.7-0.4,2.4c-0.2,0.8-0.6,1.3-1.1,1.9c-0.6,0.6-1.2,0.8-2.1,0.8s-1.7-0.2-2.1-0.8s-0.9-1.2-1.1-1.9
	c-0.2-0.8-0.3-1.5-0.4-2.4c0-0.8,0-1.6-0.1-2.3v-1.4c0.1-0.6,0.1-1,0.2-1.6c0.1-0.6,0.2-1.1,0.3-1.6c0.2-0.6,0.3-0.9,0.6-1.3
	c0.2-0.4,0.6-0.7,1-0.9c0.5-0.2,0.9-0.3,1.6-0.3c0.6,0,1.2,0.1,1.6,0.3c0.4,0.2,0.7,0.6,1,0.9c0.3,0.4,0.5,0.9,0.6,1.3
	c0.2,0.6,0.2,1,0.3,1.6c0.1,0.6,0.2,1,0.2,1.6V198.7z"/>
<path d="M80.5,183.1c-0.6-0.8-1.3-1.3-2.5-1.6v-0.1c0.7-0.3,1.3-0.8,1.7-1.4c0.5-0.6,0.7-1.3,0.7-2.1c0-0.8-0.1-1.5-0.4-2.1
	c-0.3-0.6-0.7-1.1-1.2-1.5c-0.5-0.4-1.1-0.6-1.7-0.9c-0.6-0.2-1.3-0.3-2.1-0.3c-0.9,0-1.7,0.1-2.4,0.4c-0.7,0.3-1.3,0.7-1.7,1.2
	c-0.4,0.5-0.8,1.1-1,1.8c-0.2,0.7-0.4,1.5-0.4,2.4h2.1c0-0.6,0.1-1,0.2-1.5c0.2-0.5,0.3-0.9,0.6-1.3c0.2-0.4,0.6-0.6,1-0.9
	c0.4-0.2,0.9-0.3,1.5-0.3c0.9,0,1.7,0.2,2.3,0.7c0.6,0.5,0.9,1.2,0.9,2.1c0,0.5-0.2,0.9-0.3,1.3c-0.2,0.4-0.4,0.7-0.7,0.9
	c-0.3,0.2-0.7,0.5-1.1,0.6c-0.4,0.1-0.8,0.2-1.3,0.2h-0.7h-0.1v2.1c0.4-0.1,0.8-0.1,1.3-0.1c0.6,0,1,0.2,1.5,0.2
	c0.5,0.1,0.9,0.3,1.2,0.6s0.6,0.6,0.8,1.1c0.2,0.5,0.3,0.9,0.3,1.5c0,0.5-0.1,0.9-0.3,1.4c-0.2,0.5-0.5,0.8-0.9,1.1
	s-0.8,0.6-1.3,0.7c-0.5,0.2-0.9,0.2-1.5,0.2c-1.3,0-2.2-0.4-2.8-1.1c-0.6-0.7-1-1.7-1-2.8h-2.1c0,0.9,0.1,1.7,0.4,2.5
	c0.2,0.7,0.6,1.3,1.2,1.8c0.6,0.5,1.2,0.9,1.9,1.1c0.7,0.2,1.5,0.4,2.5,0.4c0.8,0,1.6-0.1,2.4-0.3c0.8-0.2,1.4-0.6,2-1
	c0.6-0.5,1-1,1.3-1.7c0.3-0.7,0.5-1.5,0.5-2.4C81.2,184.9,81,183.9,80.5,183.1z"/>
<path d="M91.8,176.4c-0.5-0.6-1.1-0.9-1.8-1.2c-0.6-0.2-1.4-0.4-2.2-0.4c-0.6,0-1.2,0.1-1.8,0.3c-0.6,0.2-1.1,0.5-1.5,0.9l-0.1-0.1
	l0.9-5.1v0.1h7.1V169h-8.9l-1.7,9.3l1.8,0.1c0.4-0.6,0.9-0.9,1.4-1.3s1.2-0.5,1.9-0.5c0.6,0,1.2,0.1,1.7,0.3
	c0.5,0.2,0.9,0.6,1.3,0.9c0.3,0.3,0.6,0.7,0.8,1.3c0.2,0.6,0.3,1.1,0.3,1.7c0,0.7-0.1,1.3-0.3,1.9c-0.2,0.6-0.5,1-0.8,1.3
	c-0.3,0.3-0.7,0.6-1.2,0.8c-0.4,0.2-0.9,0.2-1.4,0.2c-0.6,0-1-0.1-1.5-0.2c-0.5-0.2-0.9-0.4-1.2-0.7c-0.3-0.3-0.6-0.6-0.8-1
	c-0.2-0.4-0.3-0.8-0.3-1.3h-2.1c0,0.9,0.2,1.6,0.5,2.2s0.7,1.2,1.3,1.6c0.6,0.4,1.1,0.7,1.8,0.9c0.7,0.2,1.4,0.3,2.2,0.3
	c1.1,0,2-0.2,2.8-0.5s1.4-0.8,2-1.3s0.9-1.2,1.2-1.9c0.2-0.7,0.4-1.4,0.4-2.2c0-1-0.2-2-0.5-2.7S92.4,177,91.8,176.4z"/>
<path d="M62.9,144.2c-0.1-0.6-0.3-1.3-0.6-1.9c-0.2-0.6-0.6-1.1-1-1.6c-0.5-0.5-1-0.9-1.7-1.1c-0.6-0.2-1.4-0.4-2.4-0.4
	c-0.9,0-1.7,0.1-2.4,0.4c-0.6,0.3-1.2,0.6-1.7,1.1c-0.4,0.5-0.8,0.9-1,1.6c-0.2,0.6-0.4,1.2-0.6,1.9c-0.2,0.6-0.2,1.3-0.2,2.1
	c0,0.7,0,1.4-0.1,2.1c0,0.6,0.1,1.3,0.1,2.1c0,0.7,0.1,1.3,0.2,2.1c0.1,0.6,0.3,1.3,0.6,1.9s0.6,1.1,1,1.6c0.5,0.5,1,0.9,1.7,1.1
	c0.6,0.2,1.4,0.4,2.4,0.4c0.9,0,1.7-0.1,2.4-0.4c0.7-0.3,1.2-0.6,1.7-1.1c0.4-0.5,0.8-1,1-1.6c0.2-0.6,0.4-1.2,0.6-1.9
	c0.2-0.6,0.2-1.3,0.2-2.1c0.1-0.7,0.1-1.4,0.1-2.1c0-0.6-0.1-1.3-0.1-2.1C63.2,145.6,63.1,144.9,62.9,144.2z M61.1,148.3
	c0,0.7,0,1.4-0.1,2.3c0,0.9-0.2,1.7-0.4,2.4c-0.2,0.8-0.6,1.3-1.1,1.9s-1.2,0.8-2.1,0.8c-0.9,0-1.7-0.2-2.1-0.8s-0.9-1.2-1.1-1.9
	c-0.2-0.8-0.3-1.5-0.4-2.4c0-0.8,0-1.6-0.1-2.3v-1.4c0.1-0.6,0.1-1,0.2-1.6c0.1-0.6,0.2-1.1,0.3-1.6c0.2-0.6,0.3-0.9,0.6-1.3
	c0.2-0.4,0.6-0.7,1-0.9c0.5-0.2,0.9-0.3,1.6-0.3c0.6,0,1.2,0.1,1.6,0.3c0.4,0.2,0.7,0.6,1,0.9s0.5,0.9,0.6,1.3
	c0.2,0.6,0.2,1,0.3,1.6c0.1,0.6,0.2,1,0.2,1.6V148.3z"/>
<path d="M38,107.9h-1.7l-8.1,11.7v2.1H36v4.2h2.1v-4.2h2.5v-1.9H38V107.9z M36.1,119.8h-6l6-8.8V119.8z"/>
<path d="M50.9,115.3c-0.5-0.6-1.1-0.9-1.8-1.2c-0.6-0.2-1.4-0.4-2.2-0.4c-0.6,0-1.2,0.1-1.8,0.3c-0.6,0.2-1.1,0.5-1.5,0.9l-0.1-0.1
	l0.9-5.1v0.1h7.1V108h-8.9l-1.7,9.3l1.8,0.1c0.4-0.6,0.9-0.9,1.4-1.3c0.6-0.3,1.2-0.5,1.9-0.5c0.6,0,1.2,0.1,1.7,0.3
	c0.5,0.2,0.9,0.6,1.3,0.9c0.3,0.3,0.6,0.7,0.8,1.3c0.2,0.6,0.3,1.1,0.3,1.7c0,0.7-0.1,1.3-0.3,1.9c-0.2,0.6-0.5,1-0.8,1.3
	c-0.3,0.3-0.7,0.6-1.2,0.8c-0.4,0.2-0.9,0.2-1.4,0.2c-0.6,0-1-0.1-1.5-0.2c-0.5-0.2-0.9-0.4-1.2-0.7c-0.3-0.3-0.6-0.6-0.8-1
	c-0.2-0.4-0.3-0.8-0.3-1.3h-2.1c0,0.9,0.2,1.6,0.5,2.2c0.3,0.6,0.7,1.2,1.3,1.6c0.6,0.4,1.1,0.7,1.8,0.9c0.7,0.2,1.4,0.3,2.2,0.3
	c1.1,0,2-0.2,2.8-0.5c0.8-0.3,1.4-0.8,2-1.3s0.9-1.2,1.2-1.9c0.2-0.7,0.4-1.4,0.4-2.2c0-1-0.2-2-0.5-2.7
	C51.8,116.5,51.5,115.9,50.9,115.3z"/>
<path d="M48.8,74c-0.5-0.6-1.1-0.9-1.8-1.2c-0.6-0.2-1.4-0.4-2.2-0.4c-0.6,0-1.2,0.1-1.8,0.3c-0.6,0.2-1.1,0.5-1.5,0.9l-0.1-0.1
	l0.9-5.1v0.1h7.1v-1.9h-8.9L38.9,76l1.8,0.1c0.4-0.6,0.9-0.9,1.4-1.3c0.6-0.3,1.2-0.5,1.9-0.5c0.6,0,1.2,0.1,1.7,0.3
	c0.5,0.2,0.9,0.6,1.3,0.9c0.3,0.3,0.6,0.7,0.8,1.3c0.2,0.6,0.3,1.1,0.3,1.7c0,0.7-0.1,1.3-0.3,1.9c-0.2,0.6-0.5,1-0.8,1.3
	c-0.3,0.3-0.7,0.6-1.2,0.8c-0.4,0.2-0.9,0.2-1.4,0.2c-0.6,0-1-0.1-1.5-0.2c-0.5-0.2-0.9-0.4-1.2-0.7c-0.3-0.3-0.6-0.6-0.8-1
	c-0.2-0.4-0.3-0.8-0.3-1.3h-2.1c0,0.9,0.2,1.6,0.5,2.2c0.3,0.6,0.7,1.2,1.3,1.6c0.6,0.4,1.1,0.7,1.8,0.9c0.7,0.2,1.4,0.3,2.2,0.3
	c1.1,0,2-0.2,2.8-0.5c0.8-0.3,1.4-0.8,2-1.3s0.9-1.2,1.2-1.9c0.2-0.7,0.4-1.4,0.4-2.2c0-1-0.2-2-0.5-2.7S49.4,74.5,48.8,74z"/>
<path d="M79.7,49.2c-0.5-0.6-1.1-0.9-1.8-1.2c-0.6-0.2-1.4-0.4-2.2-0.4c-0.6,0-1.2,0.1-1.8,0.3c-0.6,0.2-1.1,0.5-1.5,0.9l-0.1-0.1
	l0.9-5.1v0.1h7.1v-1.9h-8.9l-1.7,9.3l1.8,0.1c0.4-0.6,0.9-0.9,1.4-1.3c0.6-0.3,1.2-0.5,1.9-0.5c0.6,0,1.2,0.1,1.7,0.3
	c0.5,0.2,0.9,0.6,1.3,0.9c0.3,0.3,0.6,0.7,0.8,1.3s0.3,1.1,0.3,1.7c0,0.7-0.1,1.3-0.3,1.9c-0.2,0.6-0.5,1-0.8,1.3s-0.7,0.6-1.2,0.8
	c-0.4,0.2-0.9,0.2-1.4,0.2c-0.6,0-1-0.1-1.5-0.2c-0.5-0.2-0.9-0.4-1.2-0.7c-0.3-0.3-0.6-0.6-0.8-1c-0.2-0.4-0.3-0.8-0.3-1.3h-2.1
	c0,0.9,0.2,1.6,0.5,2.2s0.7,1.2,1.3,1.6s1.1,0.7,1.8,0.9c0.7,0.2,1.4,0.3,2.2,0.3c1.1,0,2-0.2,2.8-0.5c0.8-0.3,1.4-0.8,2-1.3
	s0.9-1.2,1.2-1.9c0.2-0.7,0.4-1.4,0.4-2.2c0-1-0.2-2-0.5-2.7C80.6,50.4,80.2,49.8,79.7,49.2z"/>
<path d="M90,62.4c-0.5-0.6-1.1-0.9-1.8-1.2c-0.6-0.2-1.4-0.4-2.2-0.4c-0.6,0-1.2,0.1-1.8,0.3c-0.6,0.2-1.1,0.5-1.5,0.9L82.5,62
	l0.9-5.1V57h7.1v-1.9h-8.9l-1.7,9.3l1.8,0.1c0.4-0.6,0.9-0.9,1.4-1.3c0.6-0.3,1.2-0.5,1.9-0.5c0.6,0,1.2,0.1,1.7,0.3
	c0.5,0.2,0.9,0.6,1.3,0.9c0.3,0.3,0.6,0.7,0.8,1.3c0.2,0.6,0.3,1.1,0.3,1.7c0,0.7-0.1,1.3-0.3,1.9c-0.2,0.6-0.5,1-0.8,1.3
	c-0.3,0.3-0.7,0.6-1.2,0.8c-0.4,0.2-0.9,0.2-1.4,0.2c-0.6,0-1-0.1-1.5-0.2c-0.5-0.2-0.9-0.4-1.2-0.7c-0.3-0.3-0.6-0.6-0.8-1
	c-0.2-0.4-0.3-0.8-0.3-1.3h-2.1c0,0.9,0.2,1.6,0.5,2.2s0.7,1.2,1.3,1.6c0.6,0.4,1.1,0.7,1.8,0.9c0.7,0.2,1.4,0.3,2.2,0.3
	c1.1,0,2-0.2,2.8-0.5c0.8-0.3,1.4-0.8,2-1.3s0.9-1.2,1.2-1.9c0.2-0.7,0.4-1.4,0.4-2.2c0-1-0.2-2-0.5-2.7C90.9,63.6,90.5,63,90,62.4z
	"/>
<path d="M63.4,79.5c-0.1-0.6-0.3-1.3-0.6-1.9c-0.2-0.6-0.6-1.1-1-1.6s-1-0.9-1.7-1.1c-0.6-0.2-1.4-0.4-2.4-0.4
	c-0.9,0-1.7,0.1-2.4,0.4c-0.6,0.3-1.2,0.6-1.7,1.1c-0.4,0.5-0.8,0.9-1,1.6c-0.2,0.6-0.4,1.2-0.6,1.9c-0.2,0.6-0.2,1.3-0.2,2.1
	s0,1.4-0.1,2.1c0,0.6,0.1,1.3,0.1,2.1c0,0.7,0.1,1.3,0.2,2.1c0.1,0.6,0.3,1.3,0.6,1.9c0.2,0.6,0.6,1.1,1,1.6c0.5,0.5,1,0.9,1.7,1.1
	c0.6,0.2,1.4,0.4,2.4,0.4c0.9,0,1.7-0.1,2.4-0.4c0.7-0.3,1.2-0.6,1.7-1.1c0.4-0.5,0.8-1,1-1.6c0.2-0.6,0.4-1.2,0.6-1.9
	c0.2-0.6,0.2-1.3,0.2-2.1c0.1-0.7,0.1-1.4,0.1-2.1s-0.1-1.3-0.1-2.1S63.6,80.3,63.4,79.5z M61.6,83.6c0,0.7,0,1.4-0.1,2.3
	c0,0.9-0.2,1.7-0.4,2.4c-0.2,0.8-0.6,1.3-1.1,1.9c-0.6,0.6-1.2,0.8-2.1,0.8c-0.9,0-1.7-0.2-2.1-0.8s-0.9-1.2-1.1-1.9
	c-0.2-0.8-0.3-1.5-0.4-2.4c0-0.8,0-1.6-0.1-2.3v-1.4c0.1-0.6,0.1-1,0.2-1.6c0.1-0.6,0.2-1.1,0.3-1.6c0.2-0.6,0.3-0.9,0.6-1.3
	c0.2-0.4,0.6-0.7,1-0.9c0.5-0.2,0.9-0.3,1.6-0.3c0.6,0,1.2,0.1,1.6,0.3s0.7,0.6,1,0.9c0.3,0.4,0.5,0.9,0.6,1.3
	c0.2,0.6,0.2,1,0.3,1.6c0.1,0.6,0.2,1,0.2,1.6V83.6z"/>
<path d="M147.7,61.9c-0.1-0.6-0.3-1.3-0.6-1.9c-0.2-0.6-0.6-1.1-1-1.6c-0.5-0.5-1-0.9-1.7-1.1c-0.6-0.2-1.4-0.4-2.4-0.4
	c-0.9,0-1.7,0.1-2.4,0.4c-0.6,0.3-1.2,0.6-1.7,1.1c-0.4,0.5-0.8,0.9-1,1.6c-0.2,0.6-0.4,1.2-0.6,1.9c-0.2,0.6-0.2,1.3-0.2,2.1
	c0,0.7,0,1.4-0.1,2.1c0,0.6,0.1,1.3,0.1,2.1c0,0.7,0.1,1.3,0.2,2.1c0.1,0.6,0.3,1.3,0.6,1.9c0.2,0.6,0.6,1.1,1,1.6
	c0.5,0.5,1,0.9,1.7,1.1s1.4,0.4,2.4,0.4s1.7-0.1,2.4-0.4c0.7-0.3,1.2-0.6,1.7-1.1c0.4-0.5,0.8-1,1-1.6s0.4-1.2,0.6-1.9
	c0.2-0.6,0.2-1.3,0.2-2.1c0.1-0.7,0.1-1.4,0.1-2.1s-0.1-1.3-0.1-2.1C148,63.2,147.9,62.6,147.7,61.9z M145.9,65.9
	c0,0.7,0,1.4-0.1,2.3c0,0.9-0.2,1.7-0.4,2.4c-0.2,0.8-0.6,1.3-1.1,1.9c-0.6,0.6-1.2,0.8-2.1,0.8c-0.9,0-1.7-0.2-2.1-0.8
	c-0.5-0.6-0.9-1.2-1.1-1.9c-0.2-0.8-0.3-1.5-0.4-2.4c0-0.8,0-1.6-0.1-2.3v-1.4c0.1-0.6,0.1-1,0.2-1.6s0.2-1.1,0.3-1.6
	c0.2-0.6,0.3-0.9,0.6-1.3c0.2-0.4,0.6-0.7,1-0.9c0.5-0.2,0.9-0.3,1.6-0.3s1.2,0.1,1.6,0.3c0.4,0.2,0.7,0.6,1,0.9
	c0.3,0.4,0.5,0.9,0.6,1.3c0.2,0.6,0.2,1,0.3,1.6c0.1,0.6,0.2,1,0.2,1.6V65.9z"/>
<g>
	<g>
		<path d="M135.7,157.5c0-0.5,0.4-0.8,0.8-0.8c0.5,0,0.8,0.3,0.8,0.8c0,0.5-0.4,0.8-0.8,0.8C136.1,158.4,135.7,158.1,135.7,157.5z"
			/>
		<path d="M140.2,157.8c2.2-1.9,3.3-3,3.3-4.1c0-0.7-0.4-1.2-1.4-1.2c-0.6,0-1.1,0.3-1.5,0.8l-0.5-0.5c0.6-0.6,1.2-1,2.1-1
			c1.3,0,2.1,0.8,2.1,1.9c0,1.2-1.2,2.4-2.9,4c0.4,0,0.8,0,1.2,0h2.1v0.7h-4.5V157.8z"/>
	</g>
</g>
<g>
	<g>
		<path d="M82.3,155.1v-4.1h0.8v4.1c0,1.3,0.6,1.8,1.4,1.8c0.8,0,1.4-0.5,1.4-1.8v-4.1h0.8v4.1c0,1.9-0.9,2.6-2.2,2.6
			C83.2,157.7,82.3,157,82.3,155.1z"/>
		<path d="M88.2,156.8l0.5-0.6c0.5,0.5,1.2,0.8,1.9,0.8c0.9,0,1.4-0.4,1.4-1c0-0.7-0.5-0.9-1.2-1.2l-0.9-0.4
			c-0.6-0.3-1.4-0.7-1.4-1.7c0-1,0.9-1.7,2.1-1.7c0.8,0,1.5,0.3,2,0.8l-0.4,0.5c-0.4-0.4-0.9-0.6-1.6-0.6c-0.8,0-1.3,0.4-1.3,0.9
			c0,0.6,0.6,0.9,1.2,1.1l0.9,0.4c0.8,0.3,1.4,0.8,1.4,1.7c0,1-0.9,1.9-2.3,1.9C89.6,157.7,88.7,157.4,88.2,156.8z"/>
		<path d="M96,151.1h1l2.2,6.6h-0.9l-1.1-3.7c-0.2-0.7-0.5-1.4-0.6-2.2h0c-0.2,0.8-0.4,1.5-0.6,2.2l-1.1,3.7h-0.9L96,151.1z M95,155
			h3v0.7h-3V155z"/>
	</g>
</g>
</svg>
