<?xml version="1.0" encoding="utf-8"?>
<!-- Generator: Adobe Illustrator 23.0.6, SVG Export Plug-In . SVG Version: 6.00 Build 0)  -->
<svg version="1.1" id="Layer_1" xmlns="http://www.w3.org/2000/svg" xmlns:xlink="http://www.w3.org/1999/xlink" x="0px" y="0px"
	 viewBox="0 0 226.6 233.8" style="enable-background:new 0 0 226.6 233.8;" xml:space="preserve">
<path d="M105.6,233.8v-16.3h-5.9v-2.2c0.8,0,1.5-0.1,2.2-0.2c0.7-0.1,1.4-0.3,2-0.7c0.6-0.3,1.1-0.8,1.5-1.3
	c0.4-0.6,0.7-1.3,0.8-2.1h2.1v22.7h-2.7L105.6,233.8z M97.2,4.9c0.3-1,0.8-1.8,1.4-2.5c0.6-0.7,1.4-1.3,2.4-1.7
	c0.9-0.4,2-0.6,3.2-0.6c1,0,1.9,0.1,2.8,0.4c0.9,0.3,1.6,0.7,2.3,1.2c0.6,0.5,1.1,1.2,1.5,2s0.6,1.7,0.6,2.8c0,1-0.2,1.9-0.5,2.7
	s-0.7,1.5-1.2,2.1c-0.5,0.6-1.1,1.2-1.8,1.6c-0.7,0.5-1.3,1-2,1.4s-1.4,0.8-2.1,1.3s-1.3,0.9-1.9,1.3c-0.6,0.5-1.1,1-1.5,1.5
	s-0.7,1.2-0.8,1.9h11.6v2.4H96.4c0.1-1.3,0.3-2.5,0.7-3.4s0.8-1.8,1.4-2.5s1.2-1.3,2-1.9c0.7-0.5,1.5-1,2.3-1.5
	c1-0.6,1.8-1.1,2.5-1.6s1.3-1,1.8-1.5s0.8-1.1,1.1-1.7s0.4-1.3,0.4-2.1c0-0.6-0.1-1.2-0.4-1.7c-0.2-0.5-0.5-0.9-0.9-1.3
	s-0.9-0.6-1.4-0.8s-1.1-0.3-1.7-0.3c-0.8,0-1.5,0.2-2,0.5c-0.6,0.3-1,0.8-1.4,1.3s-0.6,1.1-0.8,1.8s-0.2,1.3-0.2,2h-2.7
	C96.9,6.9,97,5.9,97.2,4.9L97.2,4.9z M216.5,107.5l-1.2,6.5l0.1,0.1c0.5-0.6,1.1-1,1.9-1.2c0.8-0.3,1.6-0.4,2.3-0.4
	c1,0,2,0.2,2.8,0.5c0.9,0.3,1.7,0.8,2.3,1.5c0.7,0.7,1.2,1.5,1.6,2.4s0.6,2.1,0.6,3.4c0,1-0.2,1.9-0.5,2.8c-0.3,0.9-0.8,1.7-1.5,2.4
	s-1.5,1.3-2.5,1.7s-2.1,0.6-3.5,0.6c-1,0-1.9-0.1-2.8-0.4s-1.6-0.7-2.3-1.2s-1.2-1.2-1.6-2c-0.4-0.8-0.6-1.7-0.6-2.8h2.7
	c0,0.6,0.2,1.1,0.4,1.6s0.6,0.9,1,1.3s0.9,0.7,1.5,0.9s1.2,0.3,1.9,0.3c0.6,0,1.3-0.1,1.8-0.3c0.6-0.2,1.1-0.6,1.5-1s0.8-1,1-1.7
	c0.3-0.7,0.4-1.5,0.4-2.4c0-0.7-0.1-1.4-0.4-2.1s-0.6-1.2-1-1.6s-1-0.8-1.6-1.1s-1.3-0.4-2.1-0.4c-0.9,0-1.7,0.2-2.4,0.6
	c-0.7,0.4-1.3,0.9-1.8,1.6l-2.3-0.1l2.1-11.8h11.2v2.4h-9L216.5,107.5z M113.8,8.9c0-0.9,0.1-1.8,0.3-2.6c0.2-0.9,0.4-1.7,0.7-2.4
	c0.3-0.8,0.8-1.4,1.3-2c0.6-0.6,1.3-1,2.1-1.4c0.8-0.4,1.9-0.5,3-0.5c1.2,0,2.2,0.2,3,0.5c0.8,0.3,1.5,0.8,2.1,1.4
	c0.6,0.6,1,1.2,1.3,2c0.3,0.8,0.6,1.6,0.7,2.4c0.2,0.9,0.3,1.7,0.3,2.6s0.1,1.8,0.1,2.6s0,1.7-0.1,2.6c-0.1,0.9-0.1,1.8-0.3,2.6
	c-0.2,0.9-0.4,1.7-0.7,2.4c-0.3,0.7-0.8,1.4-1.3,2c-0.6,0.6-1.2,1-2.1,1.4c-0.9,0.4-1.8,0.5-3,0.5c-1.2,0-2.2-0.2-3-0.5
	c-0.8-0.3-1.5-0.8-2.1-1.4c-0.6-0.6-1-1.2-1.3-2c-0.3-0.8-0.6-1.6-0.7-2.4c-0.2-0.9-0.3-1.7-0.3-2.6s-0.1-1.8-0.1-2.6
	C113.8,10.7,113.8,9.8,113.8,8.9z M116.7,14.3c0.1,1.1,0.2,2,0.5,3c0.3,0.9,0.8,1.7,1.4,2.4c0.6,0.7,1.5,1,2.7,1c1.2,0,2-0.3,2.7-1
	s1.1-1.4,1.4-2.4c0.3-0.9,0.5-1.9,0.5-3c0.1-1.1,0.1-2,0.1-2.9V9.6c0-0.7-0.1-1.3-0.2-2c-0.1-0.7-0.2-1.3-0.4-2
	c-0.2-0.6-0.4-1.2-0.8-1.7c-0.4-0.5-0.8-0.9-1.3-1.2s-1.2-0.4-2-0.4c-0.8,0-1.4,0.1-2,0.4c-0.5,0.3-1,0.7-1.3,1.2
	c-0.4,0.5-0.6,1-0.8,1.7c-0.2,0.6-0.3,1.3-0.4,2s-0.1,1.3-0.2,2v1.8C116.7,12.3,116.7,13.3,116.7,14.3z M113.5,219.7
	c0-0.9,0.1-1.8,0.3-2.6c0.2-0.9,0.4-1.7,0.7-2.4c0.3-0.8,0.8-1.4,1.3-2c0.6-0.6,1.3-1,2.1-1.4c0.8-0.4,1.9-0.5,3-0.5
	c1.2,0,2.2,0.2,3,0.5c0.8,0.3,1.5,0.8,2.1,1.4c0.6,0.6,1,1.2,1.3,2c0.3,0.8,0.6,1.6,0.7,2.4c0.2,0.9,0.3,1.7,0.3,2.6
	c0,0.9,0.1,1.8,0.1,2.6s0,1.7-0.1,2.6c-0.1,0.9-0.1,1.8-0.3,2.6c-0.2,0.9-0.4,1.7-0.7,2.4c-0.3,0.7-0.8,1.4-1.3,2
	c-0.6,0.6-1.2,1-2.1,1.4c-0.9,0.4-1.8,0.5-3,0.5c-1.2,0-2.2-0.2-3-0.5c-0.8-0.3-1.5-0.8-2.1-1.4c-0.6-0.6-1-1.2-1.3-2
	c-0.3-0.8-0.6-1.6-0.7-2.4c-0.2-0.9-0.3-1.7-0.3-2.6c0-0.9-0.1-1.8-0.1-2.6C113.5,221.5,113.5,220.6,113.5,219.7z M116.4,225.1
	c0.1,1.1,0.2,2,0.5,3c0.3,0.9,0.8,1.7,1.4,2.4c0.6,0.7,1.5,1,2.7,1c1.2,0,2-0.3,2.7-1s1.1-1.4,1.4-2.4c0.3-0.9,0.5-1.9,0.5-3
	c0.1-1.1,0.1-2,0.1-2.9v-1.8c0-0.7-0.1-1.3-0.2-2c-0.1-0.7-0.2-1.3-0.4-2c-0.2-0.6-0.4-1.2-0.8-1.7c-0.4-0.5-0.8-0.9-1.3-1.2
	s-1.2-0.4-2-0.4c-0.8,0-1.4,0.1-2,0.4c-0.5,0.3-1,0.7-1.3,1.2c-0.4,0.5-0.6,1-0.8,1.7c-0.2,0.6-0.3,1.3-0.4,2
	c-0.1,0.7-0.1,1.3-0.2,2v1.8C116.4,223.1,116.4,224.1,116.4,225.1z M5.9,127.6v-16.3H0v-2.2c0.8,0,1.5-0.1,2.2-0.2s1.4-0.3,2-0.7
	c0.6-0.3,1.1-0.8,1.5-1.3c0.4-0.6,0.7-1.3,0.8-2.1h2.1v22.7H5.9L5.9,127.6z M17.7,108l-1.2,6.5l0.1,0.1c0.5-0.6,1.1-1,1.9-1.2
	c0.8-0.3,1.6-0.4,2.3-0.4c1,0,2,0.2,2.8,0.5c0.9,0.3,1.7,0.8,2.3,1.5c0.7,0.7,1.2,1.5,1.6,2.4s0.6,2.1,0.6,3.4c0,1-0.2,1.9-0.5,2.8
	c-0.3,0.9-0.8,1.7-1.5,2.4s-1.5,1.3-2.5,1.7s-2.1,0.6-3.5,0.6c-1,0-1.9-0.1-2.8-0.4s-1.6-0.7-2.3-1.2s-1.2-1.2-1.6-2
	c-0.4-0.8-0.6-1.7-0.6-2.8h2.7c0,0.6,0.2,1.1,0.4,1.6c0.2,0.5,0.6,0.9,1,1.3s0.9,0.7,1.5,0.9s1.2,0.3,1.9,0.3c0.6,0,1.3-0.1,1.8-0.3
	c0.6-0.2,1.1-0.6,1.5-1s0.8-1,1-1.7c0.3-0.7,0.4-1.5,0.4-2.4c0-0.7-0.1-1.4-0.4-2.1s-0.6-1.2-1-1.6s-1-0.8-1.6-1.1s-1.3-0.4-2.1-0.4
	c-0.9,0-1.7,0.2-2.4,0.6c-0.7,0.4-1.3,0.9-1.8,1.6l-2.3-0.1l2.1-11.8h11.2v2.4h-9L17.7,108z"/>
</svg>
